<?xml version="1.0" encoding="UTF-8"?>
<svg id="Layer_1" data-name="Layer 1" xmlns="http://www.w3.org/2000/svg" viewBox="0 0 40 26.64">
  <path d="M40,26.29h-1.05S24.06,7.16,24.06,7.16v11.24c0,10.13-19.68,11.3-23.36,1.4-.19-.51-.7-2.19-.7-2.66V.32h4.2c.09,5.92-.19,11.88.16,17.78.76,4.97,4.48,7.54,9.42,7.21,3.11-.21,6.82-1.98,6.5-5.65-.43-5.05-10.4-4.74-12.02-10.48C6.81,4.03,10.68.36,15.59.03c6.2-.41,10.23,3.18,13.99,7.54,3.1,3.6,5.78,7.7,8.88,11.31V.32h1.54v25.97ZM22.52,15.12V6.67c0-.16-.33-1.3-.41-1.54C19.89-1.18,9.25.98,11.72,7.26c1.34,3.4,8.78,4.53,10.8,7.86Z"/>
</svg>