<?xml version="1.0" encoding="UTF-8"?>
<svg id="Layer_1" data-name="Layer 1" xmlns="http://www.w3.org/2000/svg" viewBox="0 0 45 34.52">
  <path d="M0,0h5.66C8.18,0,9.68,1.37,9.68,3.56c0,1.14-.58,2.28-1.7,2.96,1.59.54,2.74,1.87,2.74,3.73,0,2.55-1.7,4.06-4.37,4.06H0V0h0ZM5.45,6.17c1.47,0,2.47-1,2.47-2.4s-.85-2.28-2.42-2.28H1.72v4.68h3.73ZM6.28,12.82c1.68,0,2.69-1.02,2.69-2.49,0-1.74-1.29-2.67-2.74-2.67H1.72v5.16h4.56Z"/>
  <path d="M12.62,9.14c0-3.21,2.03-5.37,5.08-5.37s5.08,2.16,5.08,5.37-2.03,5.35-5.08,5.35-5.08-2.15-5.08-5.35ZM21.21,9.14c0-2.45-1.41-4.08-3.5-4.08s-3.5,1.62-3.5,4.08,1.41,4.06,3.5,4.06,3.5-1.62,3.5-4.06Z"/>
  <path d="M24.16,9.14c0-3.21,2.03-5.37,5.08-5.37s5.08,2.16,5.08,5.37-2.03,5.35-5.08,5.35-5.08-2.15-5.08-5.35ZM32.74,9.14c0-2.45-1.41-4.08-3.5-4.08s-3.5,1.62-3.5,4.08,1.41,4.06,3.5,4.06,3.5-1.62,3.5-4.06Z"/>
  <path d="M36.15,0h1.55v8.64l4.72-4.68h2.09l-4.85,4.7,5.35,5.64h-2.09l-5.22-5.62v5.62h-1.55V0h0Z"/>
  <path d="M23.86,20.79c0-.62.46-1.1,1.08-1.1s1.08.48,1.08,1.1-.48,1.1-1.08,1.1-1.08-.48-1.08-1.1ZM.24,20.02h5.66c2.51,0,4.02,1.37,4.02,3.56,0,1.14-.58,2.28-1.7,2.96,1.59.54,2.74,1.87,2.74,3.73,0,2.55-1.7,4.06-4.37,4.06H.25v-14.3h0ZM5.69,26.18c1.47,0,2.47-1,2.47-2.4s-.85-2.28-2.42-2.28H1.96v4.68h3.73ZM6.53,32.83c1.68,0,2.69-1.02,2.69-2.49,0-1.74-1.29-2.67-2.74-2.67H1.97v5.16h4.56,0ZM12.95,23.98h1.55v6.34c0,1.88.58,2.82,2.13,2.82,1.78,0,2.94-1.22,2.94-3.15v-6.01h1.55v10.34h-1.55v-1.66h-.04c-.7,1.12-1.66,1.86-3.29,1.86-2.38,0-3.29-1.37-3.29-3.77v-6.76h0ZM24.17,23.98h1.55v10.34h-1.55v-10.34ZM29.06,20.02h1.55v14.3h-1.55v-14.3ZM40.6,32.66h-.04c-.68,1.08-1.62,1.86-3.36,1.86-2.9,0-4.48-2.13-4.48-5.33s1.72-5.39,4.5-5.39c1.68,0,2.67.7,3.34,1.78h.04v-5.55h1.57v14.3h-1.57v-1.66ZM40.64,29.12c0-2.59-.95-4.04-3.13-4.04-1.89,0-3.21,1.41-3.21,4.1s1.22,4.04,3.25,4.04c2.15,0,3.09-1.51,3.09-4.1h0Z"/>
</svg>