<?xml version="1.0" encoding="UTF-8"?>
<svg id="Layer_1" data-name="Layer 1" xmlns="http://www.w3.org/2000/svg" viewBox="0 0 45 16.82">
  <path d="M45,16.81c-1.06,0-2.07,0-3.08,0-.22,0-.22-.14-.27-.27-.38-1.19-.77-2.39-1.15-3.58-.08-.24-.19-.32-.45-.32-1.91.01-3.82.01-5.73,0-.24,0-.36.06-.43.31-.36,1.2-.75,2.39-1.12,3.59-.06.2-.15.28-.37.28-.87-.02-1.75,0-2.67,0,.26-.8.52-1.57.77-2.33,1.58-4.74,3.16-9.47,4.74-14.21.06-.18.14-.26.35-.26,1.19.01,2.39.01,3.58,0,.2,0,.3.05.36.25,1.75,5.34,3.51,10.67,5.27,16,.06.17.12.34.19.55h0ZM37.22,2.63c-.04.09-.05.11-.06.14-.78,2.44-1.56,4.88-2.35,7.32-.07.22-.05.29.21.29,1.44-.01,2.89-.01,4.33,0,.28,0,.31-.06.23-.32-.6-1.86-1.18-3.73-1.77-5.59-.19-.6-.38-1.2-.59-1.85h0Z"/>
  <path d="M0,8.38C0,5.7.01,3.02,0,.34,0,.06.08,0,.34,0,1.16.02,1.98.02,2.79,0c.28,0,.36.06.36.34,0,4.52,0,9.05-.02,13.57,0,.33.08.41.41.41,2.15-.02,4.3,0,6.44-.01.24,0,.34.03.33.31-.03.65-.02,1.3,0,1.94,0,.19-.04.25-.24.25-3.27,0-6.55,0-9.82,0-.28,0-.24-.14-.24-.32,0-2.7,0-5.41,0-8.12h0Z"/>
</svg>